<?xml version="1.0" encoding="utf-8" standalone="no"?>
<!DOCTYPE svg PUBLIC "-//W3C//DTD SVG 1.1//EN"
  "http://www.w3.org/Graphics/SVG/1.1/DTD/svg11.dtd">
<!-- Created with matplotlib (https://matplotlib.org/) -->
<svg height="180.65625pt" version="1.1" viewBox="0 0 238.965625 180.65625" width="238.965625pt" xmlns="http://www.w3.org/2000/svg" xmlns:xlink="http://www.w3.org/1999/xlink">
 <metadata>
  <rdf:RDF xmlns:cc="http://creativecommons.org/ns#" xmlns:dc="http://purl.org/dc/elements/1.1/" xmlns:rdf="http://www.w3.org/1999/02/22-rdf-syntax-ns#">
   <cc:Work>
    <dc:type rdf:resource="http://purl.org/dc/dcmitype/StillImage"/>
    <dc:date>2021-12-06T11:32:57.213779</dc:date>
    <dc:format>image/svg+xml</dc:format>
    <dc:creator>
     <cc:Agent>
      <dc:title>Matplotlib v3.3.3, https://matplotlib.org/</dc:title>
     </cc:Agent>
    </dc:creator>
   </cc:Work>
  </rdf:RDF>
 </metadata>
 <defs>
  <style type="text/css">*{stroke-linecap:butt;stroke-linejoin:round;}</style>
 </defs>
 <g id="figure_1">
  <g id="patch_1">
   <path d="M 0 180.65625 
L 238.965625 180.65625 
L 238.965625 0 
L 0 0 
z
" style="fill:none;"/>
  </g>
  <g id="axes_1">
   <g id="patch_2">
    <path d="M 30.103125 143.1 
L 225.403125 143.1 
L 225.403125 7.2 
L 30.103125 7.2 
z
" style="fill:#ffffff;"/>
   </g>
   <g id="matplotlib.axis_1">
    <g id="xtick_1">
     <g id="line2d_1">
      <path clip-path="url(#p01f0f1416d)" d="M 65.974554 143.1 
L 65.974554 7.2 
" style="fill:none;stroke:#b0b0b0;stroke-linecap:square;stroke-width:0.8;"/>
     </g>
     <g id="line2d_2">
      <defs>
       <path d="M 0 0 
L 0 3.5 
" id="m0f9d99fdb0" style="stroke:#000000;stroke-width:0.8;"/>
      </defs>
      <g>
       <use style="stroke:#000000;stroke-width:0.8;" x="65.974554" xlink:href="#m0f9d99fdb0" y="143.1"/>
      </g>
     </g>
     <g id="text_1">
      <!-- 10 -->
      <g transform="translate(59.612054 157.698438)scale(0.1 -0.1)">
       <defs>
        <path d="M 12.40625 8.296875 
L 28.515625 8.296875 
L 28.515625 63.921875 
L 10.984375 60.40625 
L 10.984375 69.390625 
L 28.421875 72.90625 
L 38.28125 72.90625 
L 38.28125 8.296875 
L 54.390625 8.296875 
L 54.390625 0 
L 12.40625 0 
z
" id="DejaVuSans-49"/>
        <path d="M 31.78125 66.40625 
Q 24.171875 66.40625 20.328125 58.90625 
Q 16.5 51.421875 16.5 36.375 
Q 16.5 21.390625 20.328125 13.890625 
Q 24.171875 6.390625 31.78125 6.390625 
Q 39.453125 6.390625 43.28125 13.890625 
Q 47.125 21.390625 47.125 36.375 
Q 47.125 51.421875 43.28125 58.90625 
Q 39.453125 66.40625 31.78125 66.40625 
z
M 31.78125 74.21875 
Q 44.046875 74.21875 50.515625 64.515625 
Q 56.984375 54.828125 56.984375 36.375 
Q 56.984375 17.96875 50.515625 8.265625 
Q 44.046875 -1.421875 31.78125 -1.421875 
Q 19.53125 -1.421875 13.0625 8.265625 
Q 6.59375 17.96875 6.59375 36.375 
Q 6.59375 54.828125 13.0625 64.515625 
Q 19.53125 74.21875 31.78125 74.21875 
z
" id="DejaVuSans-48"/>
       </defs>
       <use xlink:href="#DejaVuSans-49"/>
       <use x="63.623047" xlink:href="#DejaVuSans-48"/>
      </g>
     </g>
    </g>
    <g id="xtick_2">
     <g id="line2d_3">
      <path clip-path="url(#p01f0f1416d)" d="M 105.831696 143.1 
L 105.831696 7.2 
" style="fill:none;stroke:#b0b0b0;stroke-linecap:square;stroke-width:0.8;"/>
     </g>
     <g id="line2d_4">
      <g>
       <use style="stroke:#000000;stroke-width:0.8;" x="105.831696" xlink:href="#m0f9d99fdb0" y="143.1"/>
      </g>
     </g>
     <g id="text_2">
      <!-- 20 -->
      <g transform="translate(99.469196 157.698438)scale(0.1 -0.1)">
       <defs>
        <path d="M 19.1875 8.296875 
L 53.609375 8.296875 
L 53.609375 0 
L 7.328125 0 
L 7.328125 8.296875 
Q 12.9375 14.109375 22.625 23.890625 
Q 32.328125 33.6875 34.8125 36.53125 
Q 39.546875 41.84375 41.421875 45.53125 
Q 43.3125 49.21875 43.3125 52.78125 
Q 43.3125 58.59375 39.234375 62.25 
Q 35.15625 65.921875 28.609375 65.921875 
Q 23.96875 65.921875 18.8125 64.3125 
Q 13.671875 62.703125 7.8125 59.421875 
L 7.8125 69.390625 
Q 13.765625 71.78125 18.9375 73 
Q 24.125 74.21875 28.421875 74.21875 
Q 39.75 74.21875 46.484375 68.546875 
Q 53.21875 62.890625 53.21875 53.421875 
Q 53.21875 48.921875 51.53125 44.890625 
Q 49.859375 40.875 45.40625 35.40625 
Q 44.1875 33.984375 37.640625 27.21875 
Q 31.109375 20.453125 19.1875 8.296875 
z
" id="DejaVuSans-50"/>
       </defs>
       <use xlink:href="#DejaVuSans-50"/>
       <use x="63.623047" xlink:href="#DejaVuSans-48"/>
      </g>
     </g>
    </g>
    <g id="xtick_3">
     <g id="line2d_5">
      <path clip-path="url(#p01f0f1416d)" d="M 145.688839 143.1 
L 145.688839 7.2 
" style="fill:none;stroke:#b0b0b0;stroke-linecap:square;stroke-width:0.8;"/>
     </g>
     <g id="line2d_6">
      <g>
       <use style="stroke:#000000;stroke-width:0.8;" x="145.688839" xlink:href="#m0f9d99fdb0" y="143.1"/>
      </g>
     </g>
     <g id="text_3">
      <!-- 30 -->
      <g transform="translate(139.326339 157.698438)scale(0.1 -0.1)">
       <defs>
        <path d="M 40.578125 39.3125 
Q 47.65625 37.796875 51.625 33 
Q 55.609375 28.21875 55.609375 21.1875 
Q 55.609375 10.40625 48.1875 4.484375 
Q 40.765625 -1.421875 27.09375 -1.421875 
Q 22.515625 -1.421875 17.65625 -0.515625 
Q 12.796875 0.390625 7.625 2.203125 
L 7.625 11.71875 
Q 11.71875 9.328125 16.59375 8.109375 
Q 21.484375 6.890625 26.8125 6.890625 
Q 36.078125 6.890625 40.9375 10.546875 
Q 45.796875 14.203125 45.796875 21.1875 
Q 45.796875 27.640625 41.28125 31.265625 
Q 36.765625 34.90625 28.71875 34.90625 
L 20.21875 34.90625 
L 20.21875 43.015625 
L 29.109375 43.015625 
Q 36.375 43.015625 40.234375 45.921875 
Q 44.09375 48.828125 44.09375 54.296875 
Q 44.09375 59.90625 40.109375 62.90625 
Q 36.140625 65.921875 28.71875 65.921875 
Q 24.65625 65.921875 20.015625 65.03125 
Q 15.375 64.15625 9.8125 62.3125 
L 9.8125 71.09375 
Q 15.4375 72.65625 20.34375 73.4375 
Q 25.25 74.21875 29.59375 74.21875 
Q 40.828125 74.21875 47.359375 69.109375 
Q 53.90625 64.015625 53.90625 55.328125 
Q 53.90625 49.265625 50.4375 45.09375 
Q 46.96875 40.921875 40.578125 39.3125 
z
" id="DejaVuSans-51"/>
       </defs>
       <use xlink:href="#DejaVuSans-51"/>
       <use x="63.623047" xlink:href="#DejaVuSans-48"/>
      </g>
     </g>
    </g>
    <g id="xtick_4">
     <g id="line2d_7">
      <path clip-path="url(#p01f0f1416d)" d="M 185.545982 143.1 
L 185.545982 7.2 
" style="fill:none;stroke:#b0b0b0;stroke-linecap:square;stroke-width:0.8;"/>
     </g>
     <g id="line2d_8">
      <g>
       <use style="stroke:#000000;stroke-width:0.8;" x="185.545982" xlink:href="#m0f9d99fdb0" y="143.1"/>
      </g>
     </g>
     <g id="text_4">
      <!-- 40 -->
      <g transform="translate(179.183482 157.698438)scale(0.1 -0.1)">
       <defs>
        <path d="M 37.796875 64.3125 
L 12.890625 25.390625 
L 37.796875 25.390625 
z
M 35.203125 72.90625 
L 47.609375 72.90625 
L 47.609375 25.390625 
L 58.015625 25.390625 
L 58.015625 17.1875 
L 47.609375 17.1875 
L 47.609375 0 
L 37.796875 0 
L 37.796875 17.1875 
L 4.890625 17.1875 
L 4.890625 26.703125 
z
" id="DejaVuSans-52"/>
       </defs>
       <use xlink:href="#DejaVuSans-52"/>
       <use x="63.623047" xlink:href="#DejaVuSans-48"/>
      </g>
     </g>
    </g>
    <g id="xtick_5">
     <g id="line2d_9">
      <path clip-path="url(#p01f0f1416d)" d="M 225.403125 143.1 
L 225.403125 7.2 
" style="fill:none;stroke:#b0b0b0;stroke-linecap:square;stroke-width:0.8;"/>
     </g>
     <g id="line2d_10">
      <g>
       <use style="stroke:#000000;stroke-width:0.8;" x="225.403125" xlink:href="#m0f9d99fdb0" y="143.1"/>
      </g>
     </g>
     <g id="text_5">
      <!-- 50 -->
      <g transform="translate(219.040625 157.698438)scale(0.1 -0.1)">
       <defs>
        <path d="M 10.796875 72.90625 
L 49.515625 72.90625 
L 49.515625 64.59375 
L 19.828125 64.59375 
L 19.828125 46.734375 
Q 21.96875 47.46875 24.109375 47.828125 
Q 26.265625 48.1875 28.421875 48.1875 
Q 40.625 48.1875 47.75 41.5 
Q 54.890625 34.8125 54.890625 23.390625 
Q 54.890625 11.625 47.5625 5.09375 
Q 40.234375 -1.421875 26.90625 -1.421875 
Q 22.3125 -1.421875 17.546875 -0.640625 
Q 12.796875 0.140625 7.71875 1.703125 
L 7.71875 11.625 
Q 12.109375 9.234375 16.796875 8.0625 
Q 21.484375 6.890625 26.703125 6.890625 
Q 35.15625 6.890625 40.078125 11.328125 
Q 45.015625 15.765625 45.015625 23.390625 
Q 45.015625 31 40.078125 35.4375 
Q 35.15625 39.890625 26.703125 39.890625 
Q 22.75 39.890625 18.8125 39.015625 
Q 14.890625 38.140625 10.796875 36.28125 
z
" id="DejaVuSans-53"/>
       </defs>
       <use xlink:href="#DejaVuSans-53"/>
       <use x="63.623047" xlink:href="#DejaVuSans-48"/>
      </g>
     </g>
    </g>
    <g id="text_6">
     <!-- epoch -->
     <g transform="translate(112.525 171.376563)scale(0.1 -0.1)">
      <defs>
       <path d="M 56.203125 29.59375 
L 56.203125 25.203125 
L 14.890625 25.203125 
Q 15.484375 15.921875 20.484375 11.0625 
Q 25.484375 6.203125 34.421875 6.203125 
Q 39.59375 6.203125 44.453125 7.46875 
Q 49.3125 8.734375 54.109375 11.28125 
L 54.109375 2.78125 
Q 49.265625 0.734375 44.1875 -0.34375 
Q 39.109375 -1.421875 33.890625 -1.421875 
Q 20.796875 -1.421875 13.15625 6.1875 
Q 5.515625 13.8125 5.515625 26.8125 
Q 5.515625 40.234375 12.765625 48.109375 
Q 20.015625 56 32.328125 56 
Q 43.359375 56 49.78125 48.890625 
Q 56.203125 41.796875 56.203125 29.59375 
z
M 47.21875 32.234375 
Q 47.125 39.59375 43.09375 43.984375 
Q 39.0625 48.390625 32.421875 48.390625 
Q 24.90625 48.390625 20.390625 44.140625 
Q 15.875 39.890625 15.1875 32.171875 
z
" id="DejaVuSans-101"/>
       <path d="M 18.109375 8.203125 
L 18.109375 -20.796875 
L 9.078125 -20.796875 
L 9.078125 54.6875 
L 18.109375 54.6875 
L 18.109375 46.390625 
Q 20.953125 51.265625 25.265625 53.625 
Q 29.59375 56 35.59375 56 
Q 45.5625 56 51.78125 48.09375 
Q 58.015625 40.1875 58.015625 27.296875 
Q 58.015625 14.40625 51.78125 6.484375 
Q 45.5625 -1.421875 35.59375 -1.421875 
Q 29.59375 -1.421875 25.265625 0.953125 
Q 20.953125 3.328125 18.109375 8.203125 
z
M 48.6875 27.296875 
Q 48.6875 37.203125 44.609375 42.84375 
Q 40.53125 48.484375 33.40625 48.484375 
Q 26.265625 48.484375 22.1875 42.84375 
Q 18.109375 37.203125 18.109375 27.296875 
Q 18.109375 17.390625 22.1875 11.75 
Q 26.265625 6.109375 33.40625 6.109375 
Q 40.53125 6.109375 44.609375 11.75 
Q 48.6875 17.390625 48.6875 27.296875 
z
" id="DejaVuSans-112"/>
       <path d="M 30.609375 48.390625 
Q 23.390625 48.390625 19.1875 42.75 
Q 14.984375 37.109375 14.984375 27.296875 
Q 14.984375 17.484375 19.15625 11.84375 
Q 23.34375 6.203125 30.609375 6.203125 
Q 37.796875 6.203125 41.984375 11.859375 
Q 46.1875 17.53125 46.1875 27.296875 
Q 46.1875 37.015625 41.984375 42.703125 
Q 37.796875 48.390625 30.609375 48.390625 
z
M 30.609375 56 
Q 42.328125 56 49.015625 48.375 
Q 55.71875 40.765625 55.71875 27.296875 
Q 55.71875 13.875 49.015625 6.21875 
Q 42.328125 -1.421875 30.609375 -1.421875 
Q 18.84375 -1.421875 12.171875 6.21875 
Q 5.515625 13.875 5.515625 27.296875 
Q 5.515625 40.765625 12.171875 48.375 
Q 18.84375 56 30.609375 56 
z
" id="DejaVuSans-111"/>
       <path d="M 48.78125 52.59375 
L 48.78125 44.1875 
Q 44.96875 46.296875 41.140625 47.34375 
Q 37.3125 48.390625 33.40625 48.390625 
Q 24.65625 48.390625 19.8125 42.84375 
Q 14.984375 37.3125 14.984375 27.296875 
Q 14.984375 17.28125 19.8125 11.734375 
Q 24.65625 6.203125 33.40625 6.203125 
Q 37.3125 6.203125 41.140625 7.25 
Q 44.96875 8.296875 48.78125 10.40625 
L 48.78125 2.09375 
Q 45.015625 0.34375 40.984375 -0.53125 
Q 36.96875 -1.421875 32.421875 -1.421875 
Q 20.0625 -1.421875 12.78125 6.34375 
Q 5.515625 14.109375 5.515625 27.296875 
Q 5.515625 40.671875 12.859375 48.328125 
Q 20.21875 56 33.015625 56 
Q 37.15625 56 41.109375 55.140625 
Q 45.0625 54.296875 48.78125 52.59375 
z
" id="DejaVuSans-99"/>
       <path d="M 54.890625 33.015625 
L 54.890625 0 
L 45.90625 0 
L 45.90625 32.71875 
Q 45.90625 40.484375 42.875 44.328125 
Q 39.84375 48.1875 33.796875 48.1875 
Q 26.515625 48.1875 22.3125 43.546875 
Q 18.109375 38.921875 18.109375 30.90625 
L 18.109375 0 
L 9.078125 0 
L 9.078125 75.984375 
L 18.109375 75.984375 
L 18.109375 46.1875 
Q 21.34375 51.125 25.703125 53.5625 
Q 30.078125 56 35.796875 56 
Q 45.21875 56 50.046875 50.171875 
Q 54.890625 44.34375 54.890625 33.015625 
z
" id="DejaVuSans-104"/>
      </defs>
      <use xlink:href="#DejaVuSans-101"/>
      <use x="61.523438" xlink:href="#DejaVuSans-112"/>
      <use x="125" xlink:href="#DejaVuSans-111"/>
      <use x="186.181641" xlink:href="#DejaVuSans-99"/>
      <use x="241.162109" xlink:href="#DejaVuSans-104"/>
     </g>
    </g>
   </g>
   <g id="matplotlib.axis_2">
    <g id="ytick_1">
     <g id="line2d_11">
      <path clip-path="url(#p01f0f1416d)" d="M 30.103125 143.1 
L 225.403125 143.1 
" style="fill:none;stroke:#b0b0b0;stroke-linecap:square;stroke-width:0.8;"/>
     </g>
     <g id="line2d_12">
      <defs>
       <path d="M 0 0 
L -3.5 0 
" id="me3746f614b" style="stroke:#000000;stroke-width:0.8;"/>
      </defs>
      <g>
       <use style="stroke:#000000;stroke-width:0.8;" x="30.103125" xlink:href="#me3746f614b" y="143.1"/>
      </g>
     </g>
     <g id="text_7">
      <!-- 0.0 -->
      <g transform="translate(7.2 146.899219)scale(0.1 -0.1)">
       <defs>
        <path d="M 10.6875 12.40625 
L 21 12.40625 
L 21 0 
L 10.6875 0 
z
" id="DejaVuSans-46"/>
       </defs>
       <use xlink:href="#DejaVuSans-48"/>
       <use x="63.623047" xlink:href="#DejaVuSans-46"/>
       <use x="95.410156" xlink:href="#DejaVuSans-48"/>
      </g>
     </g>
    </g>
    <g id="ytick_2">
     <g id="line2d_13">
      <path clip-path="url(#p01f0f1416d)" d="M 30.103125 112.213636 
L 225.403125 112.213636 
" style="fill:none;stroke:#b0b0b0;stroke-linecap:square;stroke-width:0.8;"/>
     </g>
     <g id="line2d_14">
      <g>
       <use style="stroke:#000000;stroke-width:0.8;" x="30.103125" xlink:href="#me3746f614b" y="112.213636"/>
      </g>
     </g>
     <g id="text_8">
      <!-- 0.5 -->
      <g transform="translate(7.2 116.012855)scale(0.1 -0.1)">
       <use xlink:href="#DejaVuSans-48"/>
       <use x="63.623047" xlink:href="#DejaVuSans-46"/>
       <use x="95.410156" xlink:href="#DejaVuSans-53"/>
      </g>
     </g>
    </g>
    <g id="ytick_3">
     <g id="line2d_15">
      <path clip-path="url(#p01f0f1416d)" d="M 30.103125 81.327273 
L 225.403125 81.327273 
" style="fill:none;stroke:#b0b0b0;stroke-linecap:square;stroke-width:0.8;"/>
     </g>
     <g id="line2d_16">
      <g>
       <use style="stroke:#000000;stroke-width:0.8;" x="30.103125" xlink:href="#me3746f614b" y="81.327273"/>
      </g>
     </g>
     <g id="text_9">
      <!-- 1.0 -->
      <g transform="translate(7.2 85.126491)scale(0.1 -0.1)">
       <use xlink:href="#DejaVuSans-49"/>
       <use x="63.623047" xlink:href="#DejaVuSans-46"/>
       <use x="95.410156" xlink:href="#DejaVuSans-48"/>
      </g>
     </g>
    </g>
    <g id="ytick_4">
     <g id="line2d_17">
      <path clip-path="url(#p01f0f1416d)" d="M 30.103125 50.440909 
L 225.403125 50.440909 
" style="fill:none;stroke:#b0b0b0;stroke-linecap:square;stroke-width:0.8;"/>
     </g>
     <g id="line2d_18">
      <g>
       <use style="stroke:#000000;stroke-width:0.8;" x="30.103125" xlink:href="#me3746f614b" y="50.440909"/>
      </g>
     </g>
     <g id="text_10">
      <!-- 1.5 -->
      <g transform="translate(7.2 54.240128)scale(0.1 -0.1)">
       <use xlink:href="#DejaVuSans-49"/>
       <use x="63.623047" xlink:href="#DejaVuSans-46"/>
       <use x="95.410156" xlink:href="#DejaVuSans-53"/>
      </g>
     </g>
    </g>
    <g id="ytick_5">
     <g id="line2d_19">
      <path clip-path="url(#p01f0f1416d)" d="M 30.103125 19.554545 
L 225.403125 19.554545 
" style="fill:none;stroke:#b0b0b0;stroke-linecap:square;stroke-width:0.8;"/>
     </g>
     <g id="line2d_20">
      <g>
       <use style="stroke:#000000;stroke-width:0.8;" x="30.103125" xlink:href="#me3746f614b" y="19.554545"/>
      </g>
     </g>
     <g id="text_11">
      <!-- 2.0 -->
      <g transform="translate(7.2 23.353764)scale(0.1 -0.1)">
       <use xlink:href="#DejaVuSans-50"/>
       <use x="63.623047" xlink:href="#DejaVuSans-46"/>
       <use x="95.410156" xlink:href="#DejaVuSans-48"/>
      </g>
     </g>
    </g>
   </g>
   <g id="line2d_21">
    <path clip-path="url(#p01f0f1416d)" d="M 34.365615 -1 
L 34.885982 14.003166 
L 35.683125 14.830554 
L 36.480268 19.904104 
L 38.074554 27.051447 
L 38.871696 39.58822 
L 40.465982 41.356908 
L 41.263125 43.227229 
L 42.060268 44.356827 
L 42.857411 53.588492 
L 43.654554 53.453423 
L 44.451696 53.47276 
L 45.248839 54.415808 
L 46.045982 55.183638 
L 46.843125 59.980911 
L 47.640268 60.246683 
L 48.437411 61.006735 
L 49.234554 61.601277 
L 50.031696 61.84277 
L 50.828839 66.475574 
L 51.625982 65.893915 
L 54.017411 67.651645 
L 54.814554 72.941975 
L 55.611696 73.389212 
L 56.408839 73.51538 
L 57.205982 74.020472 
L 58.003125 74.004817 
L 58.800268 77.403239 
L 59.597411 77.421613 
L 60.394554 77.767526 
L 61.191696 77.969652 
L 61.988839 78.521296 
L 62.785982 82.251388 
L 63.583125 82.352179 
L 65.974554 83.18446 
L 66.771696 86.635882 
L 67.568839 86.790984 
L 68.365982 86.447253 
L 69.960268 86.498676 
L 70.757411 90.131459 
L 71.554554 89.533285 
L 72.351696 89.645884 
L 73.148839 89.529719 
L 73.945982 89.689361 
L 74.743125 92.507928 
L 75.540268 92.63228 
L 77.931696 93.463707 
L 78.728839 95.273995 
L 79.525982 95.898266 
L 80.323125 95.524719 
L 81.917411 95.856309 
L 82.714554 98.337812 
L 83.511696 97.725032 
L 84.308839 97.398767 
L 85.105982 97.715905 
L 85.903125 97.882135 
L 86.700268 100.689569 
L 87.497411 99.439447 
L 88.294554 99.380907 
L 89.091696 99.631836 
L 89.888839 99.675122 
L 90.685982 102.682867 
L 91.483125 102.969707 
L 92.280268 102.984929 
L 93.077411 102.851907 
L 93.874554 102.920262 
L 94.671696 104.065127 
L 95.468839 104.659025 
L 96.265982 104.981787 
L 97.860268 104.244476 
L 98.657411 105.312506 
L 100.251696 105.412556 
L 101.048839 105.466359 
L 102.643125 105.80046 
L 103.440268 106.260557 
L 105.034554 106.675566 
L 105.831696 106.998863 
L 106.628839 108.983409 
L 107.425982 109.233496 
L 109.817411 109.303703 
L 110.614554 111.090406 
L 111.411696 110.676286 
L 112.208839 110.766384 
L 113.803125 110.378402 
L 114.600268 112.384902 
L 115.397411 111.104128 
L 116.194554 110.877642 
L 116.991696 111.214976 
L 117.788839 111.311097 
L 118.585982 112.156426 
L 119.383125 112.577478 
L 120.180268 112.351841 
L 121.774554 112.367353 
L 122.571696 114.725691 
L 123.368839 113.929245 
L 124.165982 113.483338 
L 124.963125 113.745966 
L 125.760268 113.866069 
L 126.557411 115.344325 
L 127.354554 114.953555 
L 128.151696 115.142144 
L 128.948839 114.982062 
L 129.745982 114.675306 
L 130.543125 116.320003 
L 131.340268 115.919558 
L 132.137411 116.002485 
L 132.934554 115.78859 
L 133.731696 115.789981 
L 134.528839 118.192477 
L 135.325982 117.380321 
L 136.123125 117.419031 
L 137.717411 117.176193 
L 138.514554 119.228352 
L 139.311696 118.257209 
L 140.108839 118.58492 
L 141.703125 118.17307 
L 142.500268 119.712544 
L 144.094554 119.192469 
L 144.891696 119.291009 
L 145.688839 119.136154 
L 146.485982 120.699386 
L 147.283125 120.231224 
L 148.080268 120.16832 
L 148.877411 119.938664 
L 149.674554 120.051751 
L 150.471696 122.187856 
L 151.268839 121.446447 
L 153.660268 120.786287 
L 154.457411 122.930809 
L 155.254554 122.349495 
L 156.051696 122.228736 
L 156.848839 121.87071 
L 157.645982 121.802189 
L 158.443125 123.22896 
L 159.240268 122.802815 
L 160.037411 122.593268 
L 160.834554 122.678255 
L 161.631696 122.591462 
L 162.428839 124.250658 
L 163.225982 123.628196 
L 165.617411 123.40202 
L 166.414554 124.624965 
L 167.211696 124.187147 
L 168.008839 124.011968 
L 169.603125 123.889622 
L 170.400268 125.22128 
L 171.197411 125.003922 
L 171.994554 125.205997 
L 172.791696 124.913529 
L 173.588839 124.761658 
L 174.385982 126.050501 
L 175.183125 126.044781 
L 176.777411 125.572471 
L 177.574554 125.468874 
L 178.371696 126.400159 
L 179.168839 126.380169 
L 179.965982 125.861194 
L 180.763125 125.936243 
L 181.560268 125.717448 
L 182.357411 127.461822 
L 183.154554 127.395154 
L 183.951696 127.040462 
L 185.545982 126.723587 
L 186.343125 128.537231 
L 187.140268 127.71428 
L 188.734554 127.805331 
L 189.531696 127.683509 
L 190.328839 128.999346 
L 193.517411 128.084201 
L 194.314554 129.352192 
L 195.111696 128.787306 
L 195.908839 128.886305 
L 197.503125 128.710298 
L 198.300268 129.173212 
L 199.097411 129.002803 
L 199.894554 129.316873 
L 200.691696 129.26329 
L 201.488839 128.987346 
L 202.285982 130.444134 
L 203.083125 130.612016 
L 204.677411 130.027507 
L 205.474554 129.969974 
L 206.271696 131.269567 
L 207.068839 130.868164 
L 207.865982 130.317713 
L 208.663125 130.225124 
L 209.460268 130.246811 
L 210.257411 132.158812 
L 211.054554 131.285249 
L 211.851696 131.005803 
L 213.445982 130.676341 
L 214.243125 131.71922 
L 217.431696 130.99989 
L 218.228839 131.397204 
L 219.025982 131.538902 
L 219.823125 131.419942 
L 221.417411 131.644158 
L 222.214554 132.049585 
L 223.808839 132.14525 
L 225.403125 131.962417 
L 225.403125 131.962417 
" style="fill:none;stroke:#1f77b4;stroke-linecap:square;stroke-width:1.5;"/>
   </g>
   <g id="line2d_22">
    <path clip-path="url(#p01f0f1416d)" d="M 26.914554 133.785831 
L 27.711696 133.430776 
L 28.508839 132.436851 
L 29.305982 132.553479 
L 30.103125 132.350442 
L 30.900268 129.359705 
L 31.697411 128.204913 
L 34.088839 126.432394 
L 34.885982 123.003181 
L 36.480268 122.272387 
L 37.277411 121.579512 
L 38.074554 121.034175 
L 38.871696 118.025512 
L 40.465982 117.324594 
L 41.263125 116.770754 
L 42.060268 116.442586 
L 42.857411 114.412911 
L 43.654554 114.099221 
L 44.451696 114.240554 
L 46.045982 113.464258 
L 46.843125 111.648306 
L 47.640268 111.806874 
L 48.437411 111.234649 
L 49.234554 110.965772 
L 50.031696 110.849948 
L 50.828839 109.042269 
L 51.625982 109.17326 
L 54.017411 108.548638 
L 54.814554 106.415549 
L 55.611696 106.232851 
L 56.408839 106.404058 
L 57.205982 106.165631 
L 58.003125 106.114958 
L 58.800268 105.016011 
L 60.394554 104.710364 
L 61.191696 104.710939 
L 61.988839 104.465847 
L 62.785982 102.961516 
L 63.583125 103.171791 
L 65.974554 102.705049 
L 66.771696 100.962175 
L 69.163125 101.386173 
L 69.960268 101.344118 
L 70.757411 99.82462 
L 71.554554 100.055578 
L 73.148839 100.203805 
L 73.945982 100.130725 
L 74.743125 99.231712 
L 76.337411 98.974325 
L 77.931696 98.761522 
L 79.525982 97.911457 
L 81.120268 97.990742 
L 81.917411 97.978332 
L 82.714554 97.253054 
L 83.511696 97.411622 
L 84.308839 97.384045 
L 85.105982 97.223753 
L 85.903125 97.195142 
L 86.700268 96.377481 
L 87.497411 96.76356 
L 88.294554 96.758964 
L 89.091696 96.615333 
L 89.888839 96.600855 
L 90.685982 95.61911 
L 91.483125 95.336445 
L 94.671696 95.191665 
L 95.468839 94.722854 
L 96.265982 94.605651 
L 97.860268 94.882801 
L 98.657411 94.219572 
L 101.048839 94.386758 
L 101.845982 94.362973 
L 102.643125 94.584969 
L 103.440268 94.264385 
L 105.831696 94.045836 
L 106.628839 93.247479 
L 107.425982 92.923448 
L 109.817411 93.015831 
L 110.614554 92.28228 
L 111.411696 92.516685 
L 113.803125 92.684906 
L 114.600268 92.08924 
L 115.397411 92.496002 
L 116.194554 92.615503 
L 117.788839 92.443606 
L 118.585982 91.909989 
L 121.774554 92.029949 
L 122.571696 91.206773 
L 123.368839 91.492885 
L 124.165982 91.620429 
L 124.963125 91.515291 
L 125.760268 91.537698 
L 126.557411 90.99305 
L 127.354554 91.158513 
L 128.948839 91.205049 
L 129.745982 91.303292 
L 130.543125 90.620759 
L 131.340268 90.786222 
L 133.731696 90.983398 
L 134.528839 90.062322 
L 135.325982 90.341541 
L 136.123125 90.273747 
L 137.717411 90.420825 
L 138.514554 89.448732 
L 139.311696 89.907201 
L 140.108839 89.825619 
L 141.703125 89.975455 
L 142.500268 89.338423 
L 143.297411 89.545252 
L 145.688839 89.699683 
L 146.485982 89.110912 
L 147.283125 89.29361 
L 149.674554 89.372895 
L 150.471696 88.759304 
L 153.660268 89.21019 
L 154.457411 88.55937 
L 156.848839 88.797223 
L 157.645982 88.768956 
L 158.443125 88.276705 
L 160.037411 88.455956 
L 160.834554 88.412867 
L 161.631696 88.497321 
L 162.428839 87.959568 
L 165.617411 88.254643 
L 166.414554 87.890625 
L 169.603125 87.971977 
L 170.400268 87.483863 
L 171.197411 87.618301 
L 171.994554 87.612556 
L 173.588839 87.789969 
L 174.385982 87.290823 
L 175.183125 87.277034 
L 176.777411 87.539017 
L 177.574554 87.54729 
L 178.371696 87.249457 
L 179.168839 87.201197 
L 179.965982 87.322996 
L 181.560268 87.33081 
L 182.357411 86.601395 
L 184.748839 86.923703 
L 185.545982 86.966792 
L 186.343125 86.304941 
L 187.140268 86.608289 
L 188.734554 86.601395 
L 189.531696 86.638624 
L 190.328839 86.291153 
L 191.125982 86.446274 
L 193.517411 86.587607 
L 194.314554 86.180844 
L 195.111696 86.373884 
L 197.503125 86.387672 
L 198.300268 86.139478 
L 199.097411 86.2946 
L 199.894554 86.102709 
L 201.488839 86.187738 
L 202.285982 85.725822 
L 203.083125 85.598278 
L 205.474554 85.880254 
L 206.271696 85.408685 
L 207.865982 85.774082 
L 209.460268 85.756157 
L 210.257411 85.043288 
L 211.054554 85.374214 
L 213.445982 85.594831 
L 214.243125 85.229434 
L 217.431696 85.546571 
L 219.025982 85.325954 
L 220.620268 85.389726 
L 221.417411 85.309407 
L 222.214554 85.070865 
L 225.403125 85.153597 
L 225.403125 85.153597 
" style="fill:none;stroke:#bf00bf;stroke-dasharray:5.55,2.4;stroke-dashoffset:0;stroke-width:1.5;"/>
   </g>
   <g id="line2d_23">
    <path clip-path="url(#p01f0f1416d)" d="M 30.103125 135.073609 
L 34.088839 128.685517 
L 38.074554 122.487924 
L 42.060268 119.579628 
L 46.045982 117.21743 
L 50.031696 116.950731 
L 54.017411 109.06404 
L 58.003125 114.296434 
L 61.988839 106.562143 
L 65.974554 103.793546 
L 69.960268 103.336347 
L 73.945982 101.825049 
L 77.931696 101.101149 
L 81.917411 101.342449 
L 85.903125 104.174546 
L 89.888839 100.79635 
L 93.874554 100.52965 
L 97.860268 98.370653 
L 101.845982 98.815152 
L 105.831696 98.332553 
L 109.817411 96.935554 
L 113.803125 98.129353 
L 117.788839 96.402155 
L 121.774554 100.008951 
L 125.760268 96.922854 
L 129.745982 97.773753 
L 133.731696 96.516455 
L 137.717411 96.935554 
L 141.703125 95.170256 
L 145.688839 97.202254 
L 149.674554 96.262455 
L 153.660268 95.678256 
L 157.645982 94.954357 
L 161.631696 93.900258 
L 165.617411 94.865457 
L 169.603125 96.198955 
L 173.588839 94.357457 
L 177.574554 95.779856 
L 181.560268 95.360756 
L 185.545982 95.157556 
L 189.531696 94.840057 
L 193.517411 94.573357 
L 197.503125 94.928957 
L 201.488839 95.436956 
L 205.474554 94.751157 
L 209.460268 94.446357 
L 213.445982 94.332057 
L 217.431696 94.827357 
L 221.417411 95.030557 
L 225.403125 95.398856 
" style="fill:none;stroke:#008000;stroke-dasharray:9.6,2.4,1.5,2.4;stroke-dashoffset:0;stroke-width:1.5;"/>
   </g>
   <g id="line2d_24">
    <path clip-path="url(#p01f0f1416d)" d="M 30.103125 135.483423 
L 34.088839 128.799614 
L 38.074554 121.226277 
L 42.060268 119.7252 
L 46.045982 116.852768 
L 50.031696 116.475955 
L 54.017411 109.606827 
L 58.003125 114.140945 
L 61.988839 106.722041 
L 65.974554 103.763127 
L 69.960268 103.454264 
L 73.945982 101.730805 
L 77.931696 101.477536 
L 81.917411 101.020418 
L 85.903125 104.294373 
L 89.888839 100.927759 
L 93.874554 100.464464 
L 97.860268 97.808236 
L 101.845982 98.870727 
L 105.831696 98.271532 
L 109.817411 97.178155 
L 113.803125 98.234468 
L 117.788839 96.047714 
L 121.774554 99.766432 
L 125.760268 97.388182 
L 129.745982 98.123277 
L 133.731696 96.733391 
L 137.717411 97.159623 
L 141.703125 95.411455 
L 145.688839 97.332586 
L 149.674554 96.795164 
L 153.660268 95.800623 
L 157.645982 95.362036 
L 161.631696 94.497218 
L 165.617411 94.664005 
L 169.603125 95.850041 
L 173.588839 94.342786 
L 177.574554 95.8068 
L 181.560268 95.763559 
L 185.545982 95.887105 
L 189.531696 94.78755 
L 193.517411 95.269377 
L 197.503125 95.417632 
L 201.488839 95.695609 
L 205.474554 95.497936 
L 209.460268 95.065527 
L 213.445982 94.92345 
L 217.431696 95.386745 
L 221.417411 95.423809 
L 225.403125 95.751205 
" style="fill:none;stroke:#ff0000;stroke-dasharray:1.5,2.475;stroke-dashoffset:0;stroke-width:1.5;"/>
   </g>
   <g id="patch_3">
    <path d="M 30.103125 143.1 
L 30.103125 7.2 
" style="fill:none;stroke:#000000;stroke-linecap:square;stroke-linejoin:miter;stroke-width:0.8;"/>
   </g>
   <g id="patch_4">
    <path d="M 225.403125 143.1 
L 225.403125 7.2 
" style="fill:none;stroke:#000000;stroke-linecap:square;stroke-linejoin:miter;stroke-width:0.8;"/>
   </g>
   <g id="patch_5">
    <path d="M 30.103125 143.1 
L 225.403125 143.1 
" style="fill:none;stroke:#000000;stroke-linecap:square;stroke-linejoin:miter;stroke-width:0.8;"/>
   </g>
   <g id="patch_6">
    <path d="M 30.103125 7.2 
L 225.403125 7.2 
" style="fill:none;stroke:#000000;stroke-linecap:square;stroke-linejoin:miter;stroke-width:0.8;"/>
   </g>
   <g id="legend_1">
    <g id="patch_7">
     <path d="M 140.634375 73.9125 
L 218.403125 73.9125 
Q 220.403125 73.9125 220.403125 71.9125 
L 220.403125 14.2 
Q 220.403125 12.2 218.403125 12.2 
L 140.634375 12.2 
Q 138.634375 12.2 138.634375 14.2 
L 138.634375 71.9125 
Q 138.634375 73.9125 140.634375 73.9125 
z
" style="fill:#ffffff;opacity:0.8;stroke:#cccccc;stroke-linejoin:miter;"/>
    </g>
    <g id="line2d_25">
     <path d="M 142.634375 20.298437 
L 162.634375 20.298437 
" style="fill:none;stroke:#1f77b4;stroke-linecap:square;stroke-width:1.5;"/>
    </g>
    <g id="line2d_26"/>
    <g id="text_12">
     <!-- train loss -->
     <g transform="translate(170.634375 23.798437)scale(0.1 -0.1)">
      <defs>
       <path d="M 18.3125 70.21875 
L 18.3125 54.6875 
L 36.8125 54.6875 
L 36.8125 47.703125 
L 18.3125 47.703125 
L 18.3125 18.015625 
Q 18.3125 11.328125 20.140625 9.421875 
Q 21.96875 7.515625 27.59375 7.515625 
L 36.8125 7.515625 
L 36.8125 0 
L 27.59375 0 
Q 17.1875 0 13.234375 3.875 
Q 9.28125 7.765625 9.28125 18.015625 
L 9.28125 47.703125 
L 2.6875 47.703125 
L 2.6875 54.6875 
L 9.28125 54.6875 
L 9.28125 70.21875 
z
" id="DejaVuSans-116"/>
       <path d="M 41.109375 46.296875 
Q 39.59375 47.171875 37.8125 47.578125 
Q 36.03125 48 33.890625 48 
Q 26.265625 48 22.1875 43.046875 
Q 18.109375 38.09375 18.109375 28.8125 
L 18.109375 0 
L 9.078125 0 
L 9.078125 54.6875 
L 18.109375 54.6875 
L 18.109375 46.1875 
Q 20.953125 51.171875 25.484375 53.578125 
Q 30.03125 56 36.53125 56 
Q 37.453125 56 38.578125 55.875 
Q 39.703125 55.765625 41.0625 55.515625 
z
" id="DejaVuSans-114"/>
       <path d="M 34.28125 27.484375 
Q 23.390625 27.484375 19.1875 25 
Q 14.984375 22.515625 14.984375 16.5 
Q 14.984375 11.71875 18.140625 8.90625 
Q 21.296875 6.109375 26.703125 6.109375 
Q 34.1875 6.109375 38.703125 11.40625 
Q 43.21875 16.703125 43.21875 25.484375 
L 43.21875 27.484375 
z
M 52.203125 31.203125 
L 52.203125 0 
L 43.21875 0 
L 43.21875 8.296875 
Q 40.140625 3.328125 35.546875 0.953125 
Q 30.953125 -1.421875 24.3125 -1.421875 
Q 15.921875 -1.421875 10.953125 3.296875 
Q 6 8.015625 6 15.921875 
Q 6 25.140625 12.171875 29.828125 
Q 18.359375 34.515625 30.609375 34.515625 
L 43.21875 34.515625 
L 43.21875 35.40625 
Q 43.21875 41.609375 39.140625 45 
Q 35.0625 48.390625 27.6875 48.390625 
Q 23 48.390625 18.546875 47.265625 
Q 14.109375 46.140625 10.015625 43.890625 
L 10.015625 52.203125 
Q 14.9375 54.109375 19.578125 55.046875 
Q 24.21875 56 28.609375 56 
Q 40.484375 56 46.34375 49.84375 
Q 52.203125 43.703125 52.203125 31.203125 
z
" id="DejaVuSans-97"/>
       <path d="M 9.421875 54.6875 
L 18.40625 54.6875 
L 18.40625 0 
L 9.421875 0 
z
M 9.421875 75.984375 
L 18.40625 75.984375 
L 18.40625 64.59375 
L 9.421875 64.59375 
z
" id="DejaVuSans-105"/>
       <path d="M 54.890625 33.015625 
L 54.890625 0 
L 45.90625 0 
L 45.90625 32.71875 
Q 45.90625 40.484375 42.875 44.328125 
Q 39.84375 48.1875 33.796875 48.1875 
Q 26.515625 48.1875 22.3125 43.546875 
Q 18.109375 38.921875 18.109375 30.90625 
L 18.109375 0 
L 9.078125 0 
L 9.078125 54.6875 
L 18.109375 54.6875 
L 18.109375 46.1875 
Q 21.34375 51.125 25.703125 53.5625 
Q 30.078125 56 35.796875 56 
Q 45.21875 56 50.046875 50.171875 
Q 54.890625 44.34375 54.890625 33.015625 
z
" id="DejaVuSans-110"/>
       <path id="DejaVuSans-32"/>
       <path d="M 9.421875 75.984375 
L 18.40625 75.984375 
L 18.40625 0 
L 9.421875 0 
z
" id="DejaVuSans-108"/>
       <path d="M 44.28125 53.078125 
L 44.28125 44.578125 
Q 40.484375 46.53125 36.375 47.5 
Q 32.28125 48.484375 27.875 48.484375 
Q 21.1875 48.484375 17.84375 46.4375 
Q 14.5 44.390625 14.5 40.28125 
Q 14.5 37.15625 16.890625 35.375 
Q 19.28125 33.59375 26.515625 31.984375 
L 29.59375 31.296875 
Q 39.15625 29.25 43.1875 25.515625 
Q 47.21875 21.78125 47.21875 15.09375 
Q 47.21875 7.46875 41.1875 3.015625 
Q 35.15625 -1.421875 24.609375 -1.421875 
Q 20.21875 -1.421875 15.453125 -0.5625 
Q 10.6875 0.296875 5.421875 2 
L 5.421875 11.28125 
Q 10.40625 8.6875 15.234375 7.390625 
Q 20.0625 6.109375 24.8125 6.109375 
Q 31.15625 6.109375 34.5625 8.28125 
Q 37.984375 10.453125 37.984375 14.40625 
Q 37.984375 18.0625 35.515625 20.015625 
Q 33.0625 21.96875 24.703125 23.78125 
L 21.578125 24.515625 
Q 13.234375 26.265625 9.515625 29.90625 
Q 5.8125 33.546875 5.8125 39.890625 
Q 5.8125 47.609375 11.28125 51.796875 
Q 16.75 56 26.8125 56 
Q 31.78125 56 36.171875 55.265625 
Q 40.578125 54.546875 44.28125 53.078125 
z
" id="DejaVuSans-115"/>
      </defs>
      <use xlink:href="#DejaVuSans-116"/>
      <use x="39.208984" xlink:href="#DejaVuSans-114"/>
      <use x="80.322266" xlink:href="#DejaVuSans-97"/>
      <use x="141.601562" xlink:href="#DejaVuSans-105"/>
      <use x="169.384766" xlink:href="#DejaVuSans-110"/>
      <use x="232.763672" xlink:href="#DejaVuSans-32"/>
      <use x="264.550781" xlink:href="#DejaVuSans-108"/>
      <use x="292.333984" xlink:href="#DejaVuSans-111"/>
      <use x="353.515625" xlink:href="#DejaVuSans-115"/>
      <use x="405.615234" xlink:href="#DejaVuSans-115"/>
     </g>
    </g>
    <g id="line2d_27">
     <path d="M 142.634375 34.976562 
L 162.634375 34.976562 
" style="fill:none;stroke:#bf00bf;stroke-dasharray:5.55,2.4;stroke-dashoffset:0;stroke-width:1.5;"/>
    </g>
    <g id="line2d_28"/>
    <g id="text_13">
     <!-- train acc -->
     <g transform="translate(170.634375 38.476562)scale(0.1 -0.1)">
      <use xlink:href="#DejaVuSans-116"/>
      <use x="39.208984" xlink:href="#DejaVuSans-114"/>
      <use x="80.322266" xlink:href="#DejaVuSans-97"/>
      <use x="141.601562" xlink:href="#DejaVuSans-105"/>
      <use x="169.384766" xlink:href="#DejaVuSans-110"/>
      <use x="232.763672" xlink:href="#DejaVuSans-32"/>
      <use x="264.550781" xlink:href="#DejaVuSans-97"/>
      <use x="325.830078" xlink:href="#DejaVuSans-99"/>
      <use x="380.810547" xlink:href="#DejaVuSans-99"/>
     </g>
    </g>
    <g id="line2d_29">
     <path d="M 142.634375 49.654687 
L 162.634375 49.654687 
" style="fill:none;stroke:#008000;stroke-dasharray:9.6,2.4,1.5,2.4;stroke-dashoffset:0;stroke-width:1.5;"/>
    </g>
    <g id="line2d_30"/>
    <g id="text_14">
     <!-- valid acc -->
     <g transform="translate(170.634375 53.154687)scale(0.1 -0.1)">
      <defs>
       <path d="M 2.984375 54.6875 
L 12.5 54.6875 
L 29.59375 8.796875 
L 46.6875 54.6875 
L 56.203125 54.6875 
L 35.6875 0 
L 23.484375 0 
z
" id="DejaVuSans-118"/>
       <path d="M 45.40625 46.390625 
L 45.40625 75.984375 
L 54.390625 75.984375 
L 54.390625 0 
L 45.40625 0 
L 45.40625 8.203125 
Q 42.578125 3.328125 38.25 0.953125 
Q 33.9375 -1.421875 27.875 -1.421875 
Q 17.96875 -1.421875 11.734375 6.484375 
Q 5.515625 14.40625 5.515625 27.296875 
Q 5.515625 40.1875 11.734375 48.09375 
Q 17.96875 56 27.875 56 
Q 33.9375 56 38.25 53.625 
Q 42.578125 51.265625 45.40625 46.390625 
z
M 14.796875 27.296875 
Q 14.796875 17.390625 18.875 11.75 
Q 22.953125 6.109375 30.078125 6.109375 
Q 37.203125 6.109375 41.296875 11.75 
Q 45.40625 17.390625 45.40625 27.296875 
Q 45.40625 37.203125 41.296875 42.84375 
Q 37.203125 48.484375 30.078125 48.484375 
Q 22.953125 48.484375 18.875 42.84375 
Q 14.796875 37.203125 14.796875 27.296875 
z
" id="DejaVuSans-100"/>
      </defs>
      <use xlink:href="#DejaVuSans-118"/>
      <use x="59.179688" xlink:href="#DejaVuSans-97"/>
      <use x="120.458984" xlink:href="#DejaVuSans-108"/>
      <use x="148.242188" xlink:href="#DejaVuSans-105"/>
      <use x="176.025391" xlink:href="#DejaVuSans-100"/>
      <use x="239.501953" xlink:href="#DejaVuSans-32"/>
      <use x="271.289062" xlink:href="#DejaVuSans-97"/>
      <use x="332.568359" xlink:href="#DejaVuSans-99"/>
      <use x="387.548828" xlink:href="#DejaVuSans-99"/>
     </g>
    </g>
    <g id="line2d_31">
     <path d="M 142.634375 64.332812 
L 162.634375 64.332812 
" style="fill:none;stroke:#ff0000;stroke-dasharray:1.5,2.475;stroke-dashoffset:0;stroke-width:1.5;"/>
    </g>
    <g id="line2d_32"/>
    <g id="text_15">
     <!-- test acc -->
     <g transform="translate(170.634375 67.832812)scale(0.1 -0.1)">
      <use xlink:href="#DejaVuSans-116"/>
      <use x="39.208984" xlink:href="#DejaVuSans-101"/>
      <use x="100.732422" xlink:href="#DejaVuSans-115"/>
      <use x="152.832031" xlink:href="#DejaVuSans-116"/>
      <use x="192.041016" xlink:href="#DejaVuSans-32"/>
      <use x="223.828125" xlink:href="#DejaVuSans-97"/>
      <use x="285.107422" xlink:href="#DejaVuSans-99"/>
      <use x="340.087891" xlink:href="#DejaVuSans-99"/>
     </g>
    </g>
   </g>
  </g>
 </g>
 <defs>
  <clipPath id="p01f0f1416d">
   <rect height="135.9" width="195.3" x="30.103125" y="7.2"/>
  </clipPath>
 </defs>
</svg>
